<?xml version="1.0" encoding="UTF-8" standalone="no"?>
<!-- Created with Inkscape (http://www.inkscape.org/) -->

<svg
   width="330mm"
   height="80mm"
   viewBox="0 0 330 80"
   version="1.1"
   id="svg1"
   inkscape:export-filename="..\..\Logo\Logo-Italian-Uncut - BLOG.jpg"
   inkscape:export-xdpi="96"
   inkscape:export-ydpi="96"
   inkscape:version="1.4.2 (f4327f4, 2025-05-13)"
   sodipodi:docname="Logo-Italian-Uncut - BLOG-660x160.svg"
   xmlns:inkscape="http://www.inkscape.org/namespaces/inkscape"
   xmlns:sodipodi="http://sodipodi.sourceforge.net/DTD/sodipodi-0.dtd"
   xmlns="http://www.w3.org/2000/svg"
   xmlns:svg="http://www.w3.org/2000/svg">
  <sodipodi:namedview
     id="namedview1"
     pagecolor="#ffffff"
     bordercolor="#666666"
     borderopacity="1.0"
     inkscape:showpageshadow="2"
     inkscape:pageopacity="0.0"
     inkscape:pagecheckerboard="0"
     inkscape:deskcolor="#d1d1d1"
     inkscape:document-units="mm"
     inkscape:zoom="1"
     inkscape:cx="665.5"
     inkscape:cy="185.5"
     inkscape:window-width="1920"
     inkscape:window-height="1013"
     inkscape:window-x="-9"
     inkscape:window-y="-9"
     inkscape:window-maximized="1"
     inkscape:current-layer="layer1" />
  <defs
     id="defs1" />
  <g
     inkscape:label="Livello 1"
     inkscape:groupmode="layer"
     id="layer1">
    <g
       style="display:inline;fill:#fff6d5;fill-opacity:1"
       id="g1"
       transform="matrix(0.87315301,0,0,0.87315301,32.126706,135.51577)" />
    <rect
       style="opacity:1;fill:#000000;fill-opacity:1;stroke-width:0.0229278;stroke-linecap:square;stroke-dasharray:0.0229278, 0.0458558;stroke-dashoffset:0.060759;paint-order:stroke fill markers"
       id="rect1"
       width="174.625"
       height="42.333332"
       x="77.6875"
       y="18.833334" />
    <g
       id="g2"
       transform="matrix(0.26458333,0,0,0.26458333,50.289137,140.74989)" />
    <g
       id="g3"
       transform="translate(-38.364615,-7.9375)">
      <text
         xml:space="preserve"
         style="font-style:normal;font-variant:normal;font-weight:normal;font-stretch:normal;font-size:10.9321px;line-height:1.25;font-family:Arial;-inkscape-font-specification:'Arial, Normal';font-variant-ligatures:normal;font-variant-caps:normal;font-variant-numeric:normal;font-variant-east-asian:normal;letter-spacing:0px;word-spacing:0px;fill:#e9d5aa;fill-opacity:1;stroke-width:0.136651"
         x="179.31801"
         y="40.882179"
         id="text1"
         transform="scale(0.90701953,1.1025121)"><tspan
           sodipodi:role="line"
           id="tspan1"
           style="font-style:normal;font-variant:normal;font-weight:normal;font-stretch:normal;font-size:10.9321px;font-family:'Times New Roman';-inkscape-font-specification:'Times New Roman, Normal';font-variant-ligatures:normal;font-variant-caps:normal;font-variant-numeric:normal;font-variant-east-asian:normal;text-align:center;text-anchor:middle;fill:#e9d5aa;fill-opacity:1;stroke-width:0.136651"
           x="179.31801"
           y="40.882179">THE</tspan></text>
      <text
         xml:space="preserve"
         style="font-size:18.2202px;line-height:1.25;font-family:Arial;-inkscape-font-specification:'Arial, Normal';letter-spacing:0px;word-spacing:0px;fill:#e9d5aa;fill-opacity:1;stroke-width:0.136651"
         x="205.10048"
         y="57.328049"
         id="text2"
         transform="scale(0.90701953,1.1025121)"><tspan
           sodipodi:role="line"
           style="font-style:normal;font-variant:normal;font-weight:normal;font-stretch:normal;font-size:18.2202px;font-family:'Times New Roman';-inkscape-font-specification:'Times New Roman, Normal';font-variant-ligatures:normal;font-variant-caps:normal;font-variant-numeric:normal;font-variant-east-asian:normal;text-align:center;text-anchor:middle;fill:#e9d5aa;fill-opacity:1;stroke-width:0.136651"
           x="205.10048"
           y="57.328049"
           id="tspan3">ITALIAN</tspan></text>
      <text
         xml:space="preserve"
         style="font-size:18.2202px;line-height:1.25;font-family:Arial;-inkscape-font-specification:'Arial, Normal';letter-spacing:0px;word-spacing:0px;fill:#e9d5aa;fill-opacity:1;stroke-width:0.136651"
         x="277.88229"
         y="57.110664"
         id="text2-2"
         transform="scale(0.90701953,1.1025121)"><tspan
           sodipodi:role="line"
           style="font-style:normal;font-variant:normal;font-weight:normal;font-stretch:normal;font-size:18.2202px;font-family:'Times New Roman';-inkscape-font-specification:'Times New Roman, Normal';font-variant-ligatures:normal;font-variant-caps:normal;font-variant-numeric:normal;font-variant-east-asian:normal;text-align:center;text-anchor:middle;fill:#e9d5aa;fill-opacity:1;stroke-width:0.136651"
           x="277.88229"
           y="57.110664"
           id="tspan3-4">UNCUT</tspan></text>
      <path
         d="m 134.92876,32.0625 c -3.17524,0 -5.74644,3.038578 -5.74644,6.80641 v 0.1786 h 3.91802 c 0.28774,0 0.52242,0.285256 0.52242,0.635 0,0.349752 -0.23468,0.635 -0.52242,0.635 h -3.91802 v 1.270004 h 3.91802 c 0.28774,0 0.52242,0.285254 0.52242,0.635 0,0.349744 -0.23468,0.634998 -0.52242,0.634998 h -3.91802 v 1.269998 h 3.91802 c 0.28774,0 0.52242,0.285256 0.52242,0.635 0,0.349752 -0.23468,0.635006 -0.52242,0.635006 h -3.91802 v 1.448592 c 0,3.767828 2.5712,6.806404 5.74644,6.806404 3.17524,0 5.74646,-3.038576 5.74646,-6.806404 v -1.448592 h -3.91804 c -0.28976,0 -0.5224,-0.285254 -0.5224,-0.635006 0,-0.349744 0.23264,-0.635 0.5224,-0.635 h 3.91804 v -1.269998 h -3.91804 c -0.28976,0 -0.5224,-0.285254 -0.5224,-0.634998 0,-0.349746 0.23264,-0.635 0.5224,-0.635 h 3.91804 V 40.31751 h -3.91804 c -0.28976,0 -0.5224,-0.285248 -0.5224,-0.635 0,-0.349744 0.23264,-0.635 0.5224,-0.635 h 3.91804 v -0.1786 c 0,-3.767832 -2.57122,-6.80641 -5.74646,-6.80641 z m -7.93402,10.874374 c -0.21426,0.0546 -0.36528,0.29022 -0.35914,0.555626 v 3.175002 c 0,4.898926 2.90586,9.006586 6.72596,9.902032 v 3.43297 h 3.13442 v -3.43297 c 3.82008,-0.895446 6.72596,-5.003106 6.72596,-9.902032 V 43.4925 c 0,-0.307576 -0.20406,-0.555626 -0.4571,-0.555626 -0.25304,0 -0.45712,0.24805 -0.45712,0.555626 v 3.175002 c 0,4.953498 -3.3038,8.969376 -7.37896,8.969376 -4.07516,0 -7.37896,-4.015878 -7.37896,-8.969376 V 43.4925 c 0.002,-0.15874 -0.053,-0.310056 -0.149,-0.416716 -0.098,-0.10666 -0.22652,-0.15876 -0.35712,-0.1389 -0.016,0 -0.0326,0 -0.049,0 z m 2.97118,18.33563 c -0.99992,0 -1.8121,0.992188 -1.8121,2.202654 l -0.016,0.337342 13.51722,-0.0397 0.016,-0.297658 c 0,-1.210466 -0.81216,-2.202656 -1.81208,-2.202656 z"
         id="path1"
         style="display:inline;fill:#e9d5aa;fill-opacity:1;stroke-width:0.575956"
         inkscape:transform-center-x="-28.114956"
         inkscape:transform-center-y="30.880354" />
    </g>
  </g>
</svg>
